<?xml version="1.0" encoding="utf-8"?>
<!-- Generator: Adobe Illustrator 24.1.2, SVG Export Plug-In . SVG Version: 6.00 Build 0)  -->
<svg version="1.1" id="Layer_1" xmlns="http://www.w3.org/2000/svg" xmlns:xlink="http://www.w3.org/1999/xlink" x="0px" y="0px"
	 viewBox="0 0 100 100" style="enable-background:new 0 0 100 100;" xml:space="preserve">
<style type="text/css">
	.st0{fill:#FFFFFF;}
</style>
<path class="st0" d="M44.24,50.33c-12.17-8.53-8.88-0.83-15.48-1.9c-1.14-0.18-1.84-1.36-1.49-2.46c0.47-1.47,1.28-2.59,3.11-3.29
	c-4.01-4.81-7.72,0.12-11.74,2.14c-1.44,0.87-2.88,0.97-3.9-0.54c-2.06-3.96,3.89-4.98,6.4-7.19c-2.53-2.15-8.25-2.86-6.67-6.8
	c2.61-3.73,6.15,1.04,9.58,2.27c0.59-3.43-1.8-8.71,2.61-9.23c6.8,1.39-2.46,13.24,6.59,14.25c-0.84-3.67,3.72-7.97,5.22-3.01
	c-1.59,6.96,3.44,8.76,8.59,11.08c-0.29-5.88,1.93-9.95-4.89-12.21c-4.8-2.83-0.75-7.68,4.6-3.56c2.05-6.21-3.58-6.34-7.6-8.99
	c-1.63-0.84-2.46-2.12-1.55-3.83c2.56-3.55,6.13,0.96,9.47,2.08c0.55-3.04-1.8-9.15,2.66-9.13c4.24,0.15,2.01,5.96,2.53,9.01
	c3.17-0.93,7.22-5.65,9.52-1.8c0.82,1.67-0.08,2.82-1.54,3.61c-3.8,2.42-9.82,3.2-7.73,9.06c3.58-2.83,8.78-1.08,5.02,3.3
	c-6.75,2.01-5.28,6.71-5.13,12.66c13.46-6.32,5.45-6.98,9.2-12.12c0.78-1.07,2.38-1.21,3.27-0.21c0.96,1.07,1.44,2.29,1.19,4.15
	c6.16-1.11,3.61-6.87,3.98-11.33c-0.03-1.71,0.7-2.92,2.51-3.01c4.31,0.34,2.26,5.81,3,9.11c3.03-1.05,6.77-5.83,9.22-2.2
	c1.63,4.02-4.05,4.67-6.65,6.81c2.54,2.25,8.46,3.28,6.42,7.25c-0.98,1.5-2.46,1.41-3.9,0.53c-4.36-2.06-7.14-7.06-11.66-2.13
	c3.89,1.57,5.41,6.59-0.15,6.1c-5.1-4.87-9.21-1.49-13.64,1.79c12.24,8.71,8.69,0.73,15.38,1.9c1.13,0.2,1.82,1.37,1.46,2.46
	c-0.48,1.48-1.32,2.63-3.09,3.29c5.69,7.31,11.32-6.85,15.69-1.46c1.73,4-3.99,4.77-6.44,7.03c2.45,2.1,8.36,3,6.57,6.92
	c-2.54,3.43-6.14-1.15-9.21-2.25c-0.71,3.21,1.32,8.89-3.11,9.07c-1.86-0.11-2.43-1.41-2.39-3.1c-0.5-4.62,2.57-10.01-3.97-11.04
	c0.25,1.85-0.34,3.1-1.39,4.19c-0.84,0.88-2.29,0.72-2.98-0.28c-3.79-5.55,4.06-6.16-9.41-12.37c0.6,3.86-1.56,8.31,1.48,10.66
	c9.52,3.8,4.88,9-1,5.5c-3.57,8.07,9,5.59,8.97,12.72c-3.74,2.14-5.82-0.13-9.49-2.01C51.76,85.12,54,90.66,49.58,91
	c-4.18-0.59-1.9-5.93-2.46-9.18c-3.31,1.04-6.87,5.52-9.44,2.11c-0.96-1.71-0.18-3,1.44-3.86c3.87-2.71,9.92-2.72,7.6-9.03
	c-2.94,2.36-7.06,1.54-6.09-1.42c0.34-1.06,1.23-1.84,2.26-2.25c5.52-2.17,4.35-7.16,4-12.27c-4.64,2.81-9.85,3.95-8.27,10.38
	c-0.12,5.99-6.48,3.89-5.16-2.02c-9.27,0.39-0.06,12.37-6.61,14.08c-4.51-0.31-2.23-5.68-2.75-9.14c-3.37,1.16-6.89,5.82-9.56,2.28
	c-1.73-3.94,4.12-4.68,6.56-6.8c-2.35-2.16-8.28-3.25-6.4-7.14c4.7-5.05,10.31,8.85,15.71,1.51c-4.2-1.05-4.94-8.9,0.24-6
	C35.79,57.14,39.71,53.4,44.24,50.33z"/>
</svg>
